<?xml version="1.0" standalone="no"?>
<!DOCTYPE svg PUBLIC "-//W3C//DTD SVG 20010904//EN"
 "http://www.w3.org/TR/2001/REC-SVG-20010904/DTD/svg10.dtd">
<svg version="1.0" xmlns="http://www.w3.org/2000/svg"
 width="512.000000pt" height="512.000000pt" viewBox="0 0 512.000000 512.000000"
 preserveAspectRatio="xMidYMid meet">

<g transform="translate(0.000000,512.000000) scale(0.100000,-0.100000)"
fill="#000000" stroke="none">
<path d="M2226 4310 c-22 -12 -327 -260 -677 -551 l-638 -528 -374 -3 -374 -3
-49 -30 c-30 -19 -60 -49 -79 -79 l-30 -49 -3 -516 c-2 -458 -1 -521 14 -559
23 -61 60 -101 119 -128 50 -24 53 -24 411 -24 l361 0 634 -526 c349 -289 654
-537 679 -552 116 -69 279 -6 326 127 19 53 19 3239 0 3293 -16 46 -51 88 -96
118 -52 35 -170 40 -224 10z"/>
</g>
</svg>
