<svg id="svg" version="1.1" xmlns="http://www.w3.org/2000/svg" xmlns:xlink="http://www.w3.org/1999/xlink" width="400" height="58.10882197569995" viewBox="0, 0, 400,58.10882197569995"><g id="svgg"><path id="path0" d="M301.667 26.821 C 301.667 26.906,301.535 27.003,301.375 27.036 C 301.138 27.085,301.153 27.116,301.458 27.199 C 301.752 27.280,301.833 27.233,301.833 26.984 C 301.833 26.810,301.796 26.667,301.750 26.667 C 301.704 26.667,301.667 26.736,301.667 26.821 M6.792 26.962 C 6.631 26.996,6.500 27.078,6.500 27.144 C 6.500 27.209,6.331 27.265,6.125 27.266 C 3.955 27.284,3.573 27.343,3.125 27.728 C 2.658 28.130,2.524 28.500,2.845 28.500 C 2.943 28.500,2.913 28.611,2.777 28.747 C 2.461 29.062,2.583 29.550,3.207 30.467 C 3.814 31.360,3.656 31.681,2.694 31.505 C 0.994 31.194,0.087 31.874,0.018 33.510 C -0.018 34.351,0.017 34.454,0.388 34.623 C 0.650 34.743,0.905 35.098,1.097 35.613 C 1.638 37.059,2.283 37.393,3.245 36.728 C 3.787 36.353,4.121 36.447,4.202 36.996 C 4.242 37.269,4.210 37.513,4.131 37.540 C 3.930 37.607,3.948 39.302,4.158 39.999 C 4.593 41.443,4.150 41.440,2.837 39.989 C 2.345 39.445,1.861 39.001,1.763 39.003 C 1.664 39.004,1.696 39.078,1.833 39.167 C 2.028 39.293,2.033 39.329,1.856 39.331 C 1.560 39.334,1.667 41.528,1.968 41.628 C 2.077 41.665,2.167 41.789,2.167 41.905 C 2.167 42.187,3.657 43.531,3.885 43.455 C 4.399 43.284,6.464 46.258,6.090 46.632 C 6.057 46.665,5.524 46.424,4.907 46.096 C 3.276 45.231,0.787 45.231,1.107 46.097 C 1.334 46.710,2.093 47.234,3.534 47.771 C 4.332 48.068,5.263 48.500,5.603 48.731 C 5.944 48.963,6.287 49.112,6.365 49.064 C 6.444 49.015,6.498 49.037,6.484 49.113 C 6.432 49.416,6.515 49.620,6.830 49.958 C 7.069 50.214,7.832 51.846,7.833 52.102 C 7.834 52.357,7.031 51.965,6.872 51.633 C 6.612 51.091,5.783 50.400,5.698 50.655 C 5.552 51.094,4.883 50.802,4.156 49.980 C 3.444 49.175,3.341 49.118,2.531 49.076 C 1.486 49.022,1.431 49.219,2.096 50.624 C 2.657 51.811,2.243 51.929,1.193 50.882 C 1.069 50.759,0.753 50.547,0.489 50.411 L 0.009 50.163 0.010 53.998 L 0.011 57.833 200.006 57.833 L 400.000 57.833 400.000 54.097 C 400.000 51.362,399.947 50.343,399.802 50.295 C 399.675 50.253,399.619 49.912,399.644 49.348 C 399.691 48.320,399.469 48.271,398.880 49.180 C 397.868 50.739,397.333 50.940,397.333 49.762 C 397.333 48.745,397.112 48.500,396.195 48.500 C 395.754 48.500,395.650 48.410,395.467 47.873 C 395.230 47.176,394.491 46.996,393.709 47.445 C 393.242 47.713,393.209 47.709,392.851 47.351 C 392.397 46.897,392.182 46.952,391.750 47.630 C 391.366 48.234,391.285 48.261,390.930 47.906 C 390.787 47.763,390.582 47.699,390.476 47.765 C 390.354 47.840,390.327 47.812,390.403 47.689 C 390.547 47.456,390.206 46.333,389.991 46.333 C 389.681 46.333,389.282 47.364,389.526 47.538 C 389.698 47.661,389.684 47.677,389.469 47.609 C 389.263 47.543,389.161 47.646,389.084 47.999 C 388.959 48.568,388.922 48.545,387.413 46.938 C 387.107 46.612,386.664 46.297,386.428 46.238 C 386.193 46.179,386.000 46.066,386.000 45.986 C 386.000 45.129,384.706 45.381,383.750 46.425 L 383.083 47.153 382.417 46.832 C 381.534 46.407,381.458 46.416,381.026 47.000 C 380.546 47.649,380.443 47.632,380.087 46.842 C 379.871 46.362,379.661 46.155,379.314 46.079 C 379.052 46.022,378.656 45.743,378.435 45.460 C 377.960 44.854,377.691 44.998,377.346 46.046 C 377.233 46.387,377.072 46.667,376.987 46.667 C 376.903 46.667,376.852 46.723,376.875 46.792 C 376.919 46.923,376.780 47.000,376.500 47.000 C 376.408 47.000,376.033 46.700,375.667 46.333 C 375.211 45.877,374.855 45.667,374.540 45.667 C 374.075 45.667,374.015 45.736,373.428 46.947 C 372.848 48.146,372.284 48.162,372.084 46.986 C 372.031 46.673,371.874 46.330,371.735 46.225 C 371.550 46.085,371.538 46.015,371.688 45.965 C 371.814 45.923,371.847 45.777,371.774 45.585 C 371.671 45.318,371.624 45.307,371.432 45.512 C 371.172 45.791,370.806 46.820,370.908 46.986 C 370.947 47.049,370.833 47.191,370.656 47.301 C 370.377 47.475,370.333 47.457,370.333 47.168 C 370.333 46.984,370.260 46.833,370.170 46.833 C 370.080 46.833,369.959 46.646,369.902 46.417 C 369.767 45.879,369.630 45.892,369.059 46.498 L 368.589 46.995 368.253 46.456 C 367.978 46.015,367.803 45.912,367.292 45.892 C 366.949 45.878,366.710 45.935,366.760 46.017 C 366.811 46.099,366.678 46.167,366.464 46.167 C 366.033 46.167,365.285 46.620,365.402 46.810 C 365.443 46.877,365.335 46.941,365.162 46.954 C 364.939 46.971,364.737 46.742,364.466 46.163 C 364.184 45.561,363.988 45.345,363.722 45.340 C 363.524 45.336,363.328 45.240,363.288 45.125 C 363.185 44.830,362.523 45.446,362.266 46.076 L 362.064 46.571 361.771 45.526 C 361.609 44.951,361.370 44.440,361.240 44.390 C 361.109 44.339,361.044 44.230,361.096 44.146 C 361.148 44.062,360.885 44.152,360.512 44.347 C 360.139 44.541,359.833 44.796,359.833 44.913 C 359.833 45.030,359.713 45.226,359.566 45.348 C 359.419 45.470,359.237 45.731,359.162 45.929 C 359.036 46.259,358.837 46.309,358.125 46.188 C 358.056 46.176,358.000 46.054,358.000 45.917 C 358.000 45.779,357.941 45.667,357.869 45.667 C 357.797 45.667,357.726 45.511,357.711 45.320 C 357.649 44.488,357.126 44.294,356.835 44.995 C 356.520 45.757,355.834 46.438,355.662 46.160 C 355.505 45.905,354.541 46.332,354.047 46.875 C 353.658 47.303,353.558 47.246,353.241 46.417 C 352.889 45.494,352.721 45.478,352.363 46.332 C 351.927 47.368,351.396 46.967,350.776 45.134 C 350.645 44.746,350.467 44.406,350.381 44.377 C 350.230 44.327,349.294 45.876,349.340 46.102 C 349.352 46.163,349.297 46.259,349.218 46.315 C 349.139 46.371,348.990 46.604,348.887 46.833 L 348.700 47.250 348.431 46.625 C 348.283 46.281,348.089 46.000,347.999 46.000 C 347.705 46.000,346.500 46.575,346.500 46.716 C 346.500 46.791,346.425 46.807,346.333 46.750 C 346.242 46.693,346.167 46.726,346.167 46.823 C 346.167 47.075,345.724 47.043,345.714 46.792 C 345.709 46.677,345.661 46.396,345.606 46.167 C 345.551 45.938,345.446 45.487,345.372 45.167 C 345.261 44.682,345.155 44.574,344.745 44.527 C 344.473 44.495,344.213 44.412,344.167 44.341 C 343.861 43.869,343.359 44.018,342.748 44.763 C 342.181 45.455,341.758 46.722,342.121 46.640 C 342.192 46.624,342.718 46.839,343.291 47.118 L 344.332 47.626 343.719 48.149 C 343.159 48.627,341.335 48.909,341.598 48.477 C 341.739 48.247,341.218 48.031,340.666 48.090 C 340.346 48.124,339.599 48.174,339.008 48.201 C 338.156 48.240,337.854 48.328,337.557 48.625 C 336.951 49.231,336.631 49.103,336.188 48.080 C 335.970 47.578,335.693 47.167,335.572 47.167 C 335.443 47.167,335.379 47.031,335.416 46.837 C 335.456 46.629,335.318 46.381,335.042 46.164 C 334.491 45.730,334.388 45.883,334.256 47.342 C 334.174 48.238,333.791 49.053,333.575 48.790 C 333.541 48.748,333.332 46.893,333.280 46.167 C 333.255 45.826,333.151 45.740,332.706 45.698 L 332.162 45.645 332.266 46.716 L 332.370 47.786 331.590 47.874 C 330.760 47.967,330.391 48.250,329.929 49.143 C 329.703 49.580,329.602 49.644,329.350 49.509 C 329.181 49.419,328.990 49.399,328.925 49.464 C 328.859 49.530,328.830 49.508,328.859 49.417 C 328.932 49.188,328.492 48.167,328.321 48.167 C 328.244 48.167,328.137 47.885,328.081 47.542 C 327.860 46.168,327.847 46.140,327.453 46.257 C 326.453 46.554,325.324 49.000,326.187 49.000 C 326.316 49.000,326.310 49.077,326.167 49.250 C 325.781 49.714,325.667 49.504,325.667 48.333 C 325.667 47.204,325.414 46.738,325.215 47.500 C 325.167 47.683,325.057 47.833,324.971 47.833 C 324.884 47.833,324.860 47.908,324.917 48.000 C 325.078 48.261,324.838 48.195,324.539 47.896 C 324.289 47.646,324.239 47.662,323.885 48.104 C 323.674 48.368,323.501 48.494,323.501 48.386 C 323.500 48.277,323.413 47.977,323.307 47.719 C 323.201 47.461,323.132 47.110,323.154 46.940 C 323.178 46.752,323.110 46.658,322.982 46.700 C 322.866 46.739,322.640 46.654,322.481 46.510 C 321.717 45.825,321.688 45.815,321.506 46.155 C 321.411 46.333,321.332 46.727,321.331 47.031 C 321.329 47.420,321.284 47.514,321.179 47.348 C 321.060 47.160,320.932 47.220,320.544 47.645 L 320.058 48.177 319.671 47.672 C 319.057 46.871,316.662 47.269,316.938 48.126 C 316.998 48.313,316.981 48.347,316.888 48.220 C 316.810 48.112,316.601 48.037,316.426 48.054 C 316.230 48.072,316.070 47.951,316.012 47.740 C 315.717 46.673,314.260 45.857,314.054 46.644 C 314.003 46.840,313.910 47.000,313.847 47.000 C 313.785 47.000,313.640 47.260,313.525 47.578 C 313.334 48.104,312.543 48.932,312.383 48.772 C 312.347 48.736,312.227 48.344,312.117 47.902 C 311.959 47.269,311.828 47.072,311.500 46.982 C 311.112 46.874,311.108 46.865,311.453 46.850 C 311.710 46.838,311.794 46.757,311.727 46.583 C 311.580 46.201,311.345 46.284,311.145 46.792 C 311.046 47.044,310.900 47.376,310.821 47.530 C 310.737 47.696,310.745 47.832,310.841 47.864 C 310.930 47.893,310.853 48.012,310.668 48.127 C 310.388 48.302,310.333 48.295,310.333 48.085 C 310.333 47.946,310.272 47.833,310.196 47.833 C 310.121 47.833,309.989 47.553,309.904 47.210 L 309.750 46.586 309.178 47.189 L 308.605 47.791 308.253 47.271 C 307.971 46.854,307.803 46.760,307.409 46.801 C 306.522 46.893,305.306 47.356,305.389 47.571 C 305.613 48.155,304.766 47.661,304.482 47.042 C 304.034 46.065,302.667 45.482,302.667 46.268 C 302.667 46.396,302.600 46.500,302.519 46.500 C 302.438 46.500,302.331 46.658,302.281 46.850 C 302.172 47.266,301.833 47.120,301.833 46.657 C 301.833 46.461,301.718 46.332,301.542 46.331 C 301.294 46.329,301.288 46.304,301.499 46.171 C 301.697 46.046,301.705 45.972,301.540 45.807 C 301.426 45.693,301.332 45.446,301.331 45.258 C 301.329 45.002,301.292 44.973,301.184 45.144 C 301.087 45.298,301.020 45.310,300.977 45.182 C 300.822 44.716,299.333 46.065,299.333 46.672 C 299.333 46.852,298.779 47.167,298.462 47.167 C 298.338 47.167,298.034 46.754,297.787 46.250 C 297.539 45.746,297.268 45.333,297.185 45.333 C 296.999 45.333,296.655 46.266,296.791 46.402 C 296.845 46.456,296.801 46.500,296.694 46.500 C 296.587 46.500,296.341 46.659,296.147 46.853 C 295.870 47.130,295.765 47.158,295.658 46.986 C 295.479 46.696,294.673 47.097,294.654 47.486 C 294.644 47.675,294.615 47.688,294.552 47.530 C 294.488 47.370,294.399 47.404,294.223 47.655 C 293.850 48.187,293.572 48.070,293.259 47.250 C 292.908 46.332,292.827 46.324,292.353 47.167 C 292.147 47.533,291.946 47.833,291.906 47.833 C 291.795 47.833,291.170 47.184,291.143 47.042 C 291.060 46.592,290.776 46.000,290.643 46.000 C 290.556 46.000,290.507 45.871,290.534 45.714 C 290.735 44.543,289.169 46.591,288.793 47.990 C 288.758 48.123,288.603 47.916,288.449 47.532 C 288.288 47.130,288.059 46.833,287.910 46.833 C 287.623 46.833,286.631 47.307,286.500 47.507 C 286.338 47.753,285.788 47.749,285.728 47.500 C 285.695 47.362,285.577 46.854,285.467 46.370 C 285.325 45.751,285.199 45.516,285.041 45.577 C 284.904 45.629,284.861 45.589,284.933 45.474 C 285.013 45.345,284.911 45.311,284.613 45.368 C 284.373 45.414,284.212 45.395,284.255 45.325 C 284.298 45.256,284.113 45.122,283.843 45.028 C 283.385 44.869,283.315 44.905,282.743 45.603 C 281.729 46.840,281.802 47.312,283.100 47.905 C 284.330 48.467,284.341 48.491,283.645 49.076 C 283.175 49.472,281.362 49.692,281.588 49.325 C 281.705 49.137,281.067 48.887,280.583 48.931 C 280.308 48.956,279.633 49.002,279.083 49.032 C 278.329 49.073,277.923 49.197,277.431 49.536 L 276.778 49.985 276.567 49.578 C 276.451 49.355,276.238 49.004,276.094 48.799 C 275.951 48.594,275.833 48.318,275.833 48.185 C 275.833 48.053,275.722 47.826,275.586 47.681 C 275.451 47.535,275.160 47.209,274.940 46.956 L 274.540 46.495 274.425 46.872 C 274.362 47.080,274.271 47.700,274.223 48.250 C 274.082 49.879,273.440 50.224,273.476 48.652 C 273.486 48.180,273.444 47.710,273.381 47.609 C 273.319 47.508,273.263 47.238,273.259 47.009 C 273.251 46.662,273.160 46.586,272.704 46.548 L 272.158 46.503 272.269 47.585 L 272.379 48.667 271.845 48.667 C 271.191 48.667,270.617 48.952,270.771 49.201 C 270.837 49.308,270.809 49.338,270.702 49.272 C 270.516 49.157,270.421 49.239,269.814 50.048 C 269.561 50.386,269.410 50.466,269.259 50.341 C 269.146 50.247,268.991 50.225,268.916 50.293 C 268.841 50.361,268.828 50.332,268.888 50.228 C 268.947 50.124,268.796 49.749,268.553 49.395 C 268.257 48.964,268.085 48.456,268.034 47.862 C 267.959 47.002,267.943 46.978,267.520 47.079 C 266.434 47.338,265.313 49.833,266.282 49.833 C 266.528 49.833,266.522 49.865,266.240 50.078 C 265.801 50.410,265.780 50.404,265.441 49.830 C 265.265 49.532,265.064 49.373,264.947 49.440 C 264.839 49.503,264.807 49.491,264.877 49.414 C 265.007 49.271,264.384 48.500,264.138 48.500 C 264.063 48.500,263.903 48.741,263.783 49.035 L 263.564 49.570 263.253 48.827 C 263.082 48.418,262.955 48.027,262.971 47.958 C 262.987 47.890,262.925 47.833,262.833 47.833 C 262.742 47.833,262.667 47.723,262.667 47.588 C 262.667 47.271,261.796 46.817,261.518 46.989 C 261.383 47.072,261.323 47.401,261.353 47.888 C 261.411 48.844,261.267 49.012,260.937 48.374 C 260.798 48.104,260.417 47.649,260.092 47.363 C 259.766 47.077,259.500 46.738,259.500 46.609 C 259.500 46.480,259.387 46.281,259.250 46.167 C 259.112 46.053,259.000 45.897,259.000 45.822 C 259.000 45.613,258.289 44.906,257.956 44.784 C 257.667 44.677,257.444 44.248,257.227 43.384 C 257.163 43.128,257.182 42.990,257.275 43.048 C 257.369 43.106,257.442 42.526,257.456 41.614 C 257.479 40.172,257.803 38.833,258.131 38.833 C 258.201 38.833,258.398 38.573,258.569 38.255 C 258.740 37.937,258.934 37.709,258.998 37.749 C 259.063 37.789,259.262 37.693,259.440 37.536 C 259.781 37.234,259.805 37.225,261.024 36.934 C 262.436 36.598,262.958 35.816,262.624 34.536 C 262.402 33.682,262.099 33.252,261.835 33.416 C 261.742 33.473,261.667 33.459,261.667 33.384 C 261.667 33.309,261.438 33.147,261.159 33.023 C 260.624 32.786,259.500 32.889,259.500 33.174 C 259.500 33.262,259.401 33.333,259.280 33.333 C 258.953 33.333,258.306 34.126,258.552 34.226 C 258.698 34.286,258.695 34.310,258.542 34.320 C 258.427 34.327,258.333 34.431,258.333 34.550 C 258.333 34.669,258.245 34.855,258.136 34.964 C 257.887 35.213,257.832 35.833,258.059 35.833 C 258.153 35.833,258.065 35.986,257.865 36.173 C 257.664 36.360,257.500 36.566,257.500 36.631 C 257.499 36.697,257.274 37.012,256.999 37.333 C 256.724 37.654,256.533 38.007,256.574 38.117 C 256.622 38.243,256.551 38.278,256.381 38.213 C 256.202 38.144,256.152 38.175,256.232 38.305 C 256.299 38.412,256.274 38.500,256.177 38.500 C 256.079 38.500,256.013 38.556,256.029 38.625 C 256.046 38.694,255.957 39.087,255.833 39.500 C 255.709 39.912,255.621 40.306,255.637 40.375 C 255.653 40.444,255.592 40.500,255.500 40.500 C 255.408 40.500,255.342 40.556,255.353 40.625 C 255.510 41.621,254.961 42.966,254.708 42.206 C 254.673 42.103,254.519 42.059,254.364 42.108 C 254.164 42.172,254.144 42.155,254.294 42.046 C 254.519 41.883,254.408 40.899,254.145 40.737 C 254.065 40.687,254.000 40.284,254.000 39.841 C 254.000 39.038,253.275 38.058,252.619 37.974 C 251.774 37.865,251.490 37.899,251.567 38.100 C 251.620 38.238,251.560 38.282,251.402 38.221 C 251.248 38.162,250.903 38.390,250.492 38.821 C 249.019 40.371,250.415 43.104,252.194 42.152 C 252.430 42.026,252.538 42.091,252.741 42.482 C 252.879 42.750,253.053 42.995,253.125 43.027 C 253.198 43.058,253.488 43.546,253.771 44.111 C 254.445 45.463,254.297 45.929,252.697 47.504 L 251.528 48.655 251.359 48.202 C 251.265 47.954,250.950 47.188,250.657 46.500 C 250.365 45.813,250.070 44.969,250.002 44.625 L 249.878 44.000 250.679 44.000 C 251.633 44.000,251.815 43.803,251.298 43.332 C 251.088 43.141,250.782 42.858,250.617 42.704 C 250.355 42.460,250.295 42.455,250.146 42.670 C 250.026 42.842,249.993 42.849,250.034 42.694 C 250.067 42.571,249.791 42.156,249.422 41.772 C 248.602 40.920,248.167 40.373,248.167 40.196 C 248.167 39.989,247.312 39.412,246.684 39.195 C 245.683 38.850,245.589 39.194,246.365 40.361 C 247.176 41.582,247.076 42.068,245.978 42.254 C 245.623 42.314,245.333 42.431,245.333 42.515 C 245.333 42.598,245.224 42.667,245.090 42.667 C 244.727 42.667,244.043 43.968,243.907 44.917 C 243.798 45.670,243.620 45.990,243.305 45.997 C 243.243 45.999,243.103 45.730,242.995 45.401 C 242.774 44.731,242.559 44.304,242.099 43.619 C 241.774 43.135,241.281 41.333,241.473 41.333 C 241.534 41.333,241.601 41.033,241.622 40.667 C 241.643 40.300,241.587 40.000,241.497 40.000 C 241.407 40.000,241.333 39.887,241.333 39.750 C 241.333 39.612,241.199 39.366,241.036 39.202 C 240.385 38.552,239.801 37.658,239.885 37.440 C 239.933 37.314,239.830 36.975,239.656 36.688 C 239.082 35.745,236.537 36.153,236.911 37.128 C 236.958 37.250,236.930 37.310,236.849 37.260 C 236.551 37.075,236.493 37.750,236.763 38.253 C 237.048 38.782,237.385 38.975,238.613 39.314 C 239.408 39.534,239.759 40.208,239.593 41.198 C 239.542 41.502,239.468 41.952,239.429 42.199 C 239.360 42.638,239.967 43.765,240.712 44.580 C 240.877 44.762,241.056 45.080,241.108 45.288 C 241.160 45.496,241.270 45.667,241.351 45.667 C 241.433 45.667,241.500 45.854,241.500 46.083 C 241.500 46.751,240.928 46.621,240.581 45.875 C 240.208 45.072,239.834 44.647,239.619 44.780 C 239.525 44.838,239.496 44.808,239.554 44.715 C 239.658 44.546,238.144 43.500,237.794 43.500 C 237.694 43.500,237.654 43.457,237.707 43.404 C 237.849 43.262,235.941 41.556,235.479 41.412 C 235.261 41.344,235.046 41.235,235.000 41.170 C 234.591 40.590,230.563 40.095,230.918 40.668 C 231.108 40.977,232.859 41.859,233.098 41.767 C 233.242 41.712,233.307 41.742,233.249 41.835 C 233.193 41.926,233.264 42.000,233.407 42.000 C 233.550 42.000,233.667 42.084,233.667 42.187 C 233.667 42.315,233.747 42.308,233.920 42.164 C 234.129 41.991,234.158 41.995,234.084 42.189 C 234.029 42.333,234.189 42.540,234.498 42.722 C 234.775 42.886,235.108 43.222,235.238 43.468 C 235.515 43.992,236.579 44.974,237.890 45.917 C 238.401 46.283,238.794 46.658,238.765 46.750 C 238.736 46.842,238.777 47.043,238.856 47.198 C 239.011 47.500,238.714 47.825,238.523 47.563 C 238.123 47.012,236.936 46.156,236.699 46.246 C 236.549 46.304,236.481 46.296,236.548 46.230 C 236.716 46.062,235.830 45.502,235.395 45.501 C 235.200 45.500,234.947 45.387,234.833 45.250 C 234.719 45.112,234.528 45.000,234.409 45.000 C 234.290 45.000,233.980 44.824,233.721 44.608 C 232.638 43.707,232.077 43.688,232.298 44.560 C 232.512 45.405,233.974 46.794,234.396 46.554 C 234.499 46.495,234.531 46.505,234.466 46.576 C 234.341 46.716,234.440 46.830,235.304 47.543 C 235.914 48.046,235.906 48.083,235.238 47.829 C 234.877 47.691,234.723 47.715,234.467 47.947 C 234.241 48.151,234.111 48.180,234.029 48.047 C 233.884 47.812,231.033 46.333,230.725 46.333 C 230.579 46.333,230.500 46.538,230.500 46.917 C 230.500 47.237,230.565 47.500,230.644 47.500 C 230.859 47.500,231.667 48.725,231.667 49.051 C 231.667 49.434,231.391 49.406,231.040 48.987 C 230.224 48.012,229.667 48.092,229.667 49.183 C 229.667 49.630,229.626 49.664,229.208 49.576 C 228.956 49.523,228.585 49.446,228.384 49.405 L 228.017 49.331 228.384 48.949 C 229.044 48.260,229.500 47.599,229.500 47.330 C 229.500 47.185,229.571 46.995,229.657 46.908 C 229.744 46.821,229.860 46.494,229.915 46.181 C 229.970 45.868,230.040 45.568,230.072 45.514 C 230.224 45.256,230.328 43.516,230.196 43.435 C 229.897 43.250,228.566 44.054,227.750 44.913 C 226.758 45.956,226.333 46.165,226.333 45.611 C 226.333 45.403,226.426 45.140,226.540 45.026 C 226.705 44.862,226.697 44.787,226.499 44.662 C 226.350 44.568,226.329 44.504,226.448 44.503 C 226.557 44.501,227.139 44.003,227.740 43.396 C 228.341 42.788,228.835 42.357,228.836 42.437 C 228.838 42.518,229.005 42.321,229.207 42.000 C 229.409 41.679,229.668 41.321,229.781 41.203 C 230.568 40.387,230.121 39.344,229.204 39.859 C 228.885 40.038,228.433 40.162,228.199 40.134 L 227.775 40.083 228.262 39.859 C 229.406 39.333,229.567 39.228,229.877 38.811 C 230.203 38.372,230.024 37.167,229.633 37.167 C 229.240 37.167,229.546 36.532,229.981 36.445 C 230.246 36.393,230.703 36.129,230.998 35.860 C 231.645 35.269,231.656 35.339,230.518 32.801 C 229.904 31.432,229.163 31.168,228.386 32.042 C 227.445 33.098,227.394 33.098,227.406 32.036 C 227.413 31.374,227.355 31.095,227.214 31.123 C 227.095 31.146,227.052 31.058,227.110 30.907 C 227.227 30.602,226.772 30.230,226.123 30.100 C 225.602 29.995,224.652 30.384,224.027 30.958 C 223.802 31.165,223.562 31.333,223.495 31.333 C 223.238 31.333,222.872 32.434,222.953 32.958 C 223.036 33.486,223.022 33.500,222.428 33.500 C 221.636 33.500,221.000 34.102,221.000 34.850 C 221.000 35.394,222.347 37.097,222.587 36.857 C 222.646 36.798,222.673 36.825,222.648 36.917 C 222.516 37.383,222.866 37.840,223.304 37.775 C 223.577 37.735,223.729 37.620,223.696 37.480 C 223.656 37.306,223.690 37.297,223.839 37.442 C 223.987 37.588,224.172 37.554,224.602 37.300 C 225.146 36.979,225.793 36.993,225.590 37.322 C 225.537 37.409,225.593 37.573,225.715 37.687 C 225.887 37.848,225.902 38.121,225.782 38.906 C 225.697 39.462,225.620 40.046,225.611 40.203 C 225.578 40.803,223.446 40.201,223.076 39.487 C 222.663 38.687,222.056 38.553,221.431 39.124 C 220.137 40.306,220.217 40.309,220.217 39.070 C 220.217 37.830,220.050 37.606,219.250 37.770 C 218.975 37.826,218.746 37.882,218.742 37.894 C 218.737 37.907,218.533 38.164,218.288 38.466 C 217.860 38.993,217.757 40.472,218.108 41.040 C 218.235 41.245,217.681 42.029,217.493 41.912 C 217.405 41.858,217.333 41.881,217.333 41.963 C 217.333 42.046,217.021 42.216,216.640 42.342 C 215.813 42.615,214.847 43.556,214.715 44.217 C 214.620 44.690,214.267 44.924,213.465 45.044 C 213.035 45.109,211.632 45.803,211.492 46.020 C 211.441 46.098,211.160 46.210,210.867 46.268 C 210.043 46.433,210.177 45.874,211.130 45.168 C 212.059 44.480,212.164 44.353,212.049 44.055 C 211.990 43.900,212.050 43.863,212.238 43.935 C 212.390 43.993,212.498 43.975,212.480 43.895 C 212.461 43.815,212.538 43.527,212.650 43.255 C 212.761 42.983,212.818 42.626,212.775 42.463 C 212.733 42.300,212.766 42.167,212.849 42.167 C 212.932 42.167,213.000 41.937,213.000 41.655 C 213.000 41.047,212.779 41.074,211.378 41.850 C 210.242 42.479,210.167 42.465,210.167 41.623 C 210.167 40.849,210.372 40.628,211.274 40.430 C 212.000 40.270,212.608 39.544,212.355 39.139 C 212.250 38.971,212.231 38.833,212.312 38.833 C 212.394 38.833,212.498 38.692,212.543 38.519 C 212.604 38.286,212.733 38.226,213.044 38.285 C 213.697 38.410,214.105 38.081,214.577 37.051 C 215.583 34.852,215.272 33.500,213.760 33.500 C 213.073 33.500,213.026 33.473,213.119 33.125 C 213.278 32.522,213.313 31.167,213.169 31.167 C 213.096 31.167,212.989 30.979,212.932 30.750 C 212.841 30.387,212.574 30.243,212.125 30.314 C 212.056 30.324,212.019 30.240,212.042 30.125 C 212.104 29.811,211.225 29.774,210.798 30.072 C 210.593 30.216,210.199 30.334,209.921 30.336 C 208.821 30.341,208.000 31.165,208.000 32.266 C 208.000 32.704,207.697 32.784,207.147 32.489 C 206.188 31.976,204.982 33.252,205.282 34.463 C 205.376 34.840,205.376 35.331,205.284 35.713 C 205.013 36.833,205.244 37.470,205.965 37.590 C 207.005 37.763,206.994 37.752,206.793 38.407 C 206.693 38.733,206.548 39.000,206.472 39.000 C 206.396 39.000,206.333 39.182,206.333 39.405 C 206.333 40.036,206.736 40.347,207.843 40.568 C 208.528 40.705,208.667 40.875,208.667 41.573 C 208.667 42.543,208.612 42.557,207.370 41.898 C 206.153 41.252,205.297 41.186,205.194 41.728 C 205.157 41.920,205.204 41.996,205.315 41.928 C 205.428 41.858,205.459 41.914,205.396 42.076 C 205.145 42.731,207.230 44.705,208.109 44.645 C 208.276 44.634,208.495 45.057,208.497 45.394 C 208.500 45.650,208.418 45.686,208.042 45.596 C 207.790 45.536,207.493 45.477,207.382 45.466 C 207.272 45.454,207.221 45.380,207.269 45.302 C 207.427 45.047,206.161 44.648,205.360 44.700 C 204.560 44.752,204.242 45.498,204.869 45.850 C 204.987 45.917,205.271 46.135,205.500 46.335 C 205.729 46.535,206.254 46.895,206.667 47.135 C 207.362 47.540,208.650 48.716,208.679 48.972 C 208.686 49.033,208.716 49.205,208.745 49.355 C 208.783 49.549,208.708 49.603,208.482 49.544 C 208.309 49.498,208.167 49.390,208.167 49.304 C 208.167 49.218,208.093 49.193,208.002 49.249 C 207.909 49.306,207.878 49.243,207.932 49.105 C 208.030 48.848,207.461 48.428,207.272 48.617 C 207.214 48.675,207.167 48.606,207.167 48.465 C 207.167 47.897,206.145 47.724,203.208 47.796 C 201.444 47.839,201.420 47.869,202.250 49.000 C 202.927 49.922,202.921 49.894,202.546 50.331 C 202.100 50.853,201.888 50.733,201.773 49.895 C 201.669 49.139,201.221 48.236,200.630 47.594 C 200.467 47.416,200.328 47.303,200.321 47.344 C 200.314 47.384,200.283 47.548,200.252 47.708 C 200.221 47.868,200.269 48.044,200.358 48.099 C 200.451 48.156,200.409 48.281,200.260 48.391 C 200.118 48.497,199.985 48.781,199.966 49.023 C 199.885 50.031,199.212 48.912,199.061 47.520 C 198.886 45.899,198.707 45.624,198.039 45.947 C 197.216 46.346,196.500 47.247,196.500 47.885 C 196.500 48.397,195.811 50.750,195.478 51.373 C 195.237 51.826,194.949 51.650,194.585 50.827 C 193.951 49.394,193.493 48.745,193.305 49.011 C 193.165 49.208,193.151 49.201,193.223 48.974 C 193.415 48.371,192.774 48.134,192.413 48.674 C 191.762 49.646,191.485 48.431,191.908 46.458 C 192.026 45.911,191.955 45.898,191.245 46.336 C 190.569 46.754,189.417 48.935,189.538 49.568 C 189.650 50.154,189.176 50.301,188.785 49.802 C 187.375 48.000,186.500 47.456,186.500 48.381 C 186.500 48.810,186.394 48.991,186.010 49.217 C 185.741 49.377,185.473 49.655,185.416 49.836 C 185.313 50.160,184.581 50.470,184.384 50.273 C 184.329 50.218,184.452 49.740,184.658 49.211 C 184.863 48.683,185.043 48.100,185.057 47.917 C 185.072 47.733,185.131 47.546,185.189 47.500 C 185.394 47.339,186.328 45.500,186.206 45.497 C 186.139 45.496,186.177 45.436,186.291 45.363 C 186.525 45.214,186.794 43.963,186.726 43.333 C 186.701 43.104,186.630 42.148,186.566 41.209 C 186.503 40.269,186.366 39.429,186.261 39.342 C 185.917 39.057,185.253 39.534,185.223 40.088 C 185.164 41.174,185.037 42.306,184.959 42.441 C 184.914 42.519,184.823 42.883,184.757 43.249 C 184.691 43.615,184.589 43.990,184.531 44.082 C 184.473 44.174,184.413 44.325,184.396 44.417 C 184.314 44.882,183.777 46.248,183.609 46.420 C 183.503 46.529,183.128 46.966,182.774 47.392 C 181.964 48.369,181.905 48.362,181.971 47.292 C 182.040 46.185,181.509 45.535,180.718 45.757 C 180.460 45.829,180.081 45.886,179.875 45.884 C 179.669 45.881,179.500 45.944,179.500 46.023 C 179.500 46.102,179.265 46.167,178.978 46.167 C 178.434 46.167,178.330 47.189,178.842 47.505 C 178.944 47.569,179.005 47.650,178.976 47.685 C 178.886 47.796,179.387 48.391,180.047 48.958 C 180.394 49.256,180.593 49.500,180.489 49.500 C 180.367 49.500,180.321 49.766,180.359 50.250 C 180.400 50.763,180.355 51.000,180.215 51.000 C 179.964 51.000,178.833 49.890,178.833 49.643 C 178.833 49.302,177.804 48.167,177.494 48.167 C 177.079 48.167,177.126 49.729,177.577 50.889 C 177.833 51.550,177.849 51.720,177.666 51.834 C 177.287 52.068,176.698 51.476,176.297 50.458 C 176.089 49.931,175.864 49.500,175.798 49.500 C 175.731 49.500,175.720 49.388,175.773 49.250 C 175.903 48.911,175.681 48.938,175.083 49.333 C 174.568 49.675,174.252 49.767,174.395 49.534 C 174.713 49.021,173.481 47.474,172.500 47.154 C 171.840 46.938,170.528 46.216,170.196 45.886 C 169.836 45.527,169.350 45.908,169.339 46.558 C 169.336 46.727,169.172 47.091,168.975 47.368 C 168.537 47.984,168.411 49.000,168.774 49.000 C 168.923 49.000,168.971 49.079,168.896 49.200 C 168.828 49.310,168.789 49.685,168.809 50.034 C 168.830 50.382,168.810 50.667,168.765 50.667 C 168.538 50.667,167.833 50.261,167.833 50.130 C 167.833 50.048,167.756 50.028,167.663 50.086 C 167.569 50.144,167.506 50.130,167.522 50.054 C 167.583 49.780,167.294 49.338,167.123 49.443 C 167.027 49.503,166.995 49.476,167.052 49.384 C 167.291 48.998,166.763 48.618,166.457 48.955 C 166.194 49.246,166.197 49.331,166.504 50.341 C 166.684 50.933,166.831 51.516,166.832 51.637 C 166.834 51.970,166.146 51.802,165.934 51.417 C 165.833 51.233,165.700 51.045,165.638 50.998 C 165.251 50.704,165.429 48.000,165.853 47.738 C 166.158 47.549,165.982 47.388,165.501 47.417 C 165.227 47.433,164.865 47.571,164.696 47.723 C 164.528 47.875,164.333 48.000,164.263 48.000 C 164.193 48.000,163.947 48.149,163.715 48.331 C 163.072 48.837,162.909 48.517,163.290 47.500 C 163.488 46.970,163.533 46.716,163.610 45.667 C 163.660 44.985,163.606 44.349,163.465 43.950 L 163.240 43.317 162.662 43.704 C 162.319 43.933,162.018 44.310,161.924 44.629 C 161.836 44.925,161.700 45.167,161.622 45.167 C 161.544 45.167,161.527 45.242,161.583 45.333 C 161.734 45.576,161.467 45.528,161.091 45.243 C 160.665 44.921,160.502 43.023,160.868 42.654 C 160.999 42.524,161.318 42.042,161.577 41.583 C 161.837 41.125,162.166 40.563,162.308 40.333 C 162.724 39.660,162.660 39.341,162.018 38.904 C 161.342 38.445,160.917 38.376,161.060 38.748 C 161.112 38.884,161.101 38.981,161.036 38.963 C 160.970 38.944,160.738 39.028,160.520 39.148 C 160.106 39.378,159.842 39.209,159.836 38.708 C 159.834 38.594,159.702 38.494,159.542 38.487 C 159.348 38.478,159.324 38.444,159.471 38.386 C 159.803 38.253,159.032 37.500,158.564 37.500 C 157.935 37.500,157.347 38.161,157.186 39.049 C 157.028 39.915,156.979 40.007,156.640 40.061 C 155.233 40.285,155.140 41.429,156.458 42.287 C 157.807 43.166,158.167 43.578,158.167 44.249 C 158.167 44.559,158.238 44.858,158.326 44.912 C 158.414 44.966,158.450 45.102,158.408 45.214 C 158.365 45.325,158.514 45.615,158.738 45.857 C 158.963 46.099,159.101 46.343,159.046 46.399 C 158.990 46.454,159.024 46.500,159.121 46.500 C 159.330 46.500,159.477 46.844,159.601 47.623 C 159.689 48.177,159.682 48.186,159.304 47.972 C 159.091 47.851,158.810 47.751,158.680 47.750 C 158.550 47.749,158.413 47.636,158.376 47.499 C 158.316 47.279,158.328 47.279,158.485 47.500 C 158.582 47.637,158.663 47.673,158.664 47.579 C 158.669 47.257,157.224 46.167,156.793 46.167 C 156.515 46.167,156.483 46.239,156.586 46.625 C 156.653 46.877,156.712 47.177,156.715 47.292 C 156.719 47.406,156.776 47.500,156.841 47.500 C 157.006 47.500,157.380 48.924,157.459 49.854 C 157.515 50.521,157.467 50.668,157.101 50.956 C 156.868 51.139,156.729 51.341,156.792 51.403 C 156.855 51.466,156.790 51.473,156.648 51.418 C 156.434 51.336,156.403 51.085,156.467 49.975 C 156.527 48.946,156.491 48.596,156.314 48.485 C 155.951 48.255,155.878 48.298,155.680 48.868 C 155.351 49.811,155.011 50.217,154.739 49.991 C 154.410 49.718,154.426 48.436,154.761 48.158 C 154.905 48.038,155.139 47.714,155.283 47.437 C 155.426 47.160,155.650 46.826,155.781 46.695 C 155.912 46.564,155.978 46.350,155.928 46.220 C 155.878 46.089,155.906 46.025,155.990 46.077 C 156.136 46.167,156.275 45.884,156.409 45.222 C 156.443 45.054,156.514 44.804,156.567 44.667 C 156.786 44.098,156.405 43.917,155.679 44.244 C 155.306 44.413,155.000 44.604,155.000 44.669 C 155.000 45.246,153.730 45.863,153.547 45.375 C 153.487 45.215,153.320 44.992,153.177 44.880 C 152.994 44.738,152.980 44.676,153.131 44.672 C 153.283 44.668,153.327 44.438,153.285 43.875 C 153.199 42.743,153.447 41.783,154.187 40.377 C 155.063 38.715,154.936 38.419,153.410 38.553 L 152.352 38.646 152.176 38.111 C 151.835 37.080,150.581 36.747,149.752 37.467 C 149.252 37.902,149.224 38.381,149.649 39.215 L 149.964 39.833 149.071 39.833 C 148.340 39.833,148.145 39.895,147.994 40.177 C 147.672 40.779,147.662 41.166,147.968 41.180 C 148.141 41.188,148.170 41.225,148.042 41.277 C 147.927 41.323,147.833 41.412,147.833 41.473 C 147.833 41.672,148.819 42.029,149.022 41.903 C 149.138 41.831,149.174 41.853,149.109 41.958 C 149.049 42.055,149.282 42.299,149.625 42.501 C 150.581 43.062,150.934 43.833,150.235 43.833 C 150.014 43.833,149.833 43.752,149.833 43.653 C 149.833 43.553,149.740 43.504,149.625 43.543 C 149.510 43.581,149.175 43.513,148.880 43.390 C 148.014 43.029,147.000 43.092,147.000 43.506 C 147.000 44.023,147.786 45.167,148.141 45.167 C 148.231 45.167,148.331 45.226,148.361 45.300 C 148.457 45.529,150.629 46.649,150.748 46.530 C 150.810 46.468,150.842 46.492,150.818 46.583 C 150.778 46.740,151.012 47.380,151.351 48.039 C 151.562 48.449,151.542 48.500,151.171 48.500 C 150.977 48.500,150.740 48.303,150.592 48.018 C 149.892 46.663,148.500 45.986,148.500 47.000 C 148.500 47.364,148.579 47.501,148.792 47.503 C 149.034 47.505,149.042 47.531,148.841 47.658 C 148.635 47.789,148.652 47.928,148.962 48.614 C 149.525 49.863,149.546 51.333,149.000 51.333 C 148.817 51.333,148.667 51.258,148.667 51.167 C 148.667 51.075,148.535 50.999,148.375 50.997 C 148.160 50.996,148.140 50.959,148.297 50.859 C 148.561 50.692,148.385 50.167,148.066 50.167 C 147.938 50.167,147.833 50.273,147.833 50.404 C 147.833 50.862,146.965 51.729,146.800 51.435 C 146.649 51.164,146.682 50.539,146.863 50.250 C 146.969 50.081,147.066 49.022,146.996 48.792 C 146.975 48.723,146.949 48.608,146.937 48.536 C 146.853 48.008,146.237 47.014,145.947 46.938 C 145.473 46.814,145.459 46.843,145.419 48.043 C 145.393 48.805,145.269 49.302,144.970 49.840 C 144.743 50.249,144.420 50.942,144.253 51.381 C 143.920 52.259,143.671 52.320,143.471 51.572 C 143.176 50.472,143.147 49.367,143.388 48.444 C 143.524 47.925,143.580 47.466,143.512 47.424 C 143.313 47.301,142.167 48.156,142.167 48.428 C 142.167 48.565,142.065 48.716,141.940 48.764 C 141.816 48.812,141.621 49.166,141.508 49.550 C 141.394 49.935,141.233 50.381,141.149 50.542 C 141.043 50.745,141.061 50.834,141.207 50.836 C 141.483 50.839,140.997 51.161,140.710 51.164 C 140.597 51.166,140.323 50.880,140.102 50.530 C 139.881 50.180,139.380 49.599,138.988 49.238 C 138.597 48.878,138.111 48.413,137.908 48.206 C 137.129 47.406,136.715 48.148,137.423 49.077 C 137.793 49.562,138.097 50.333,137.917 50.333 C 137.811 50.333,136.750 48.806,136.750 48.653 C 136.750 48.575,136.637 48.377,136.500 48.214 C 136.164 47.814,136.141 47.245,136.403 45.739 C 136.597 44.623,136.593 44.461,136.369 44.375 C 136.023 44.243,135.287 44.675,135.085 45.129 C 134.995 45.333,134.864 45.500,134.794 45.500 C 134.724 45.500,134.659 45.856,134.650 46.292 C 134.617 47.883,134.468 48.035,133.863 47.092 C 133.571 46.639,133.333 46.205,133.333 46.129 C 133.333 46.052,133.209 45.710,133.058 45.370 C 132.906 45.029,132.800 44.675,132.821 44.583 C 132.843 44.492,132.805 44.473,132.737 44.541 C 132.668 44.609,132.480 44.448,132.319 44.183 C 131.243 42.415,130.123 42.668,130.895 44.505 C 131.039 44.847,131.154 44.962,131.207 44.815 C 131.253 44.688,131.282 44.789,131.271 45.040 C 131.244 45.633,130.969 45.721,129.897 45.481 C 128.027 45.062,127.343 46.557,128.783 47.916 C 129.370 48.469,129.330 48.621,128.583 48.675 C 128.313 48.694,127.669 49.369,127.768 49.528 C 127.817 49.609,127.766 49.654,127.653 49.629 C 127.540 49.604,127.315 49.943,127.154 50.384 C 126.778 51.407,126.589 51.625,126.080 51.625 C 125.623 51.625,125.629 51.650,125.665 49.958 C 125.683 49.128,125.632 48.833,125.470 48.831 C 125.308 48.829,125.316 48.785,125.500 48.667 C 125.713 48.529,125.706 48.505,125.455 48.503 C 125.122 48.500,123.736 49.710,123.697 50.037 C 123.566 51.150,123.060 51.835,122.745 51.326 C 122.499 50.927,122.775 48.763,123.173 47.979 C 123.252 47.823,123.220 47.402,123.097 46.985 L 122.883 46.262 122.445 46.735 C 122.205 46.995,121.960 47.463,121.901 47.775 C 121.804 48.290,121.468 48.420,121.054 48.103 C 120.808 47.914,120.931 46.077,121.253 45.126 C 121.883 43.264,121.401 41.929,120.309 42.513 C 120.112 42.618,120.013 42.793,120.068 42.938 C 120.120 43.073,120.094 43.141,120.010 43.089 C 119.925 43.037,119.809 43.071,119.752 43.164 C 119.606 43.400,119.000 43.377,119.000 43.135 C 119.000 42.554,118.249 41.847,117.668 41.881 C 116.732 41.936,116.048 42.857,116.561 43.371 C 117.031 43.841,117.043 44.286,116.588 44.400 C 115.964 44.557,115.987 45.516,116.625 45.970 C 117.210 46.387,117.347 46.413,117.520 46.139 C 117.629 45.968,117.662 45.983,117.664 46.205 C 117.666 46.370,117.839 46.537,118.071 46.595 C 118.669 46.745,119.326 47.803,119.445 48.808 C 119.565 49.827,119.284 49.970,118.750 49.161 C 118.451 48.708,117.768 48.343,117.577 48.534 C 117.482 48.629,118.036 50.067,118.195 50.136 C 118.261 50.165,118.274 50.294,118.224 50.424 C 118.089 50.775,117.607 50.459,117.186 49.745 C 116.992 49.416,116.759 49.193,116.668 49.249 C 116.578 49.305,116.538 49.253,116.580 49.134 C 116.700 48.795,114.833 47.000,114.361 47.000 C 114.269 47.000,114.165 46.912,114.129 46.803 C 114.091 46.689,113.939 46.654,113.766 46.721 C 113.487 46.828,113.491 46.874,113.840 47.459 C 115.181 49.707,115.772 51.709,115.200 52.063 C 115.042 52.161,114.625 51.928,114.670 51.766 C 114.734 51.534,114.289 50.674,114.149 50.761 C 114.069 50.810,114.048 50.734,114.103 50.592 C 114.171 50.416,114.104 50.333,113.893 50.331 C 113.658 50.329,113.637 50.294,113.807 50.186 C 113.972 50.082,113.986 49.963,113.858 49.731 C 113.763 49.558,113.640 49.136,113.585 48.794 C 113.335 47.231,111.333 47.433,111.333 49.020 C 111.333 49.818,111.444 49.948,112.042 49.853 C 112.110 49.842,112.167 49.914,112.167 50.012 C 112.167 50.228,112.466 50.540,112.917 50.791 C 113.772 51.269,112.600 51.186,111.237 50.671 C 110.032 50.217,108.839 50.081,109.440 50.467 C 109.539 50.531,109.753 50.842,109.915 51.159 C 110.252 51.817,110.580 52.185,110.730 52.075 C 110.787 52.034,110.798 52.047,110.756 52.105 C 110.713 52.163,110.757 52.357,110.853 52.536 C 111.162 53.114,110.887 53.037,110.157 52.343 C 109.319 51.546,109.305 51.544,108.592 52.088 C 108.197 52.390,108.017 52.449,107.961 52.296 C 107.830 51.942,108.014 49.754,108.179 49.694 C 108.264 49.664,108.333 49.506,108.333 49.344 C 108.333 49.182,108.521 48.697,108.750 48.266 C 109.715 46.452,109.223 46.295,107.625 47.907 C 106.702 48.839,106.327 48.668,106.485 47.388 C 106.498 47.280,106.426 47.141,106.326 47.079 C 106.222 47.015,106.492 46.795,106.946 46.575 C 107.976 46.075,108.395 45.735,108.257 45.511 C 108.196 45.413,108.222 45.333,108.313 45.333 C 108.405 45.333,108.473 45.202,108.466 45.042 C 108.459 44.881,108.472 44.675,108.496 44.583 C 108.608 44.152,108.464 43.708,108.077 43.290 C 107.659 42.839,107.201 42.652,107.433 43.026 C 107.505 43.143,107.478 43.173,107.364 43.102 C 107.261 43.039,106.957 43.100,106.690 43.238 C 106.227 43.477,106.197 43.471,106.082 43.120 C 106.016 42.916,105.949 42.712,105.933 42.667 C 105.559 41.566,104.711 41.180,104.002 41.787 C 103.609 42.123,103.578 42.619,103.922 43.074 C 104.340 43.626,104.214 43.717,103.166 43.622 C 102.034 43.520,101.924 43.645,102.030 44.920 C 102.085 45.578,103.457 46.175,104.375 45.939 C 104.536 45.898,104.625 45.933,104.573 46.017 C 104.521 46.100,104.589 46.211,104.723 46.263 C 105.029 46.380,105.181 46.919,104.968 47.132 C 104.802 47.298,104.114 47.184,103.271 46.849 C 102.103 46.386,100.727 48.252,100.550 50.539 C 100.448 51.871,99.833 52.911,99.833 51.754 C 99.833 51.520,99.763 51.199,99.676 51.039 C 99.590 50.880,99.278 50.240,98.983 49.616 C 98.123 47.800,97.375 47.729,97.905 49.514 C 98.180 50.440,98.234 51.130,98.066 51.570 C 97.882 52.047,97.516 51.845,97.333 51.167 C 97.078 50.218,96.735 50.318,96.214 51.491 C 95.554 52.978,95.335 52.241,95.853 50.275 C 95.946 49.922,95.980 49.591,95.929 49.540 C 95.878 49.489,95.914 49.353,96.010 49.239 C 96.105 49.123,96.117 48.989,96.036 48.939 C 95.819 48.805,94.667 49.637,94.667 49.928 C 94.667 50.065,94.550 50.222,94.407 50.277 C 94.252 50.336,94.188 50.483,94.249 50.641 C 94.305 50.787,94.298 50.853,94.232 50.788 C 94.167 50.723,93.995 50.760,93.849 50.871 C 93.703 50.982,93.636 51.009,93.701 50.932 C 93.820 50.791,93.148 49.761,92.686 49.375 C 92.188 48.959,92.000 49.130,92.000 50.000 C 92.000 50.554,92.070 50.834,92.208 50.836 C 92.363 50.838,92.367 50.870,92.222 50.963 C 92.114 51.031,91.975 51.292,91.912 51.543 C 91.849 51.795,91.733 52.000,91.654 52.000 C 91.575 52.000,91.533 52.094,91.561 52.208 C 91.589 52.323,91.581 52.360,91.542 52.292 C 91.504 52.223,91.366 52.167,91.236 52.167 C 91.034 52.167,90.901 51.625,90.980 51.125 C 90.991 51.056,90.931 51.000,90.846 51.000 C 90.762 51.000,90.608 50.743,90.504 50.430 C 90.272 49.725,89.914 49.382,89.779 49.735 C 89.727 49.869,89.775 50.015,89.884 50.059 C 90.006 50.109,89.983 50.145,89.826 50.154 C 89.651 50.162,89.555 50.362,89.527 50.774 C 89.431 52.204,88.346 52.864,88.081 51.655 C 87.971 51.156,86.864 50.167,86.416 50.167 C 86.078 50.167,84.135 52.147,84.266 52.359 C 84.341 52.481,84.312 52.506,84.185 52.428 C 84.074 52.360,83.666 52.454,83.276 52.637 C 82.276 53.107,82.175 53.114,81.305 52.781 C 80.542 52.489,79.691 51.366,79.934 50.972 C 79.981 50.896,79.884 50.832,79.718 50.831 C 79.549 50.829,79.490 50.775,79.584 50.706 C 80.012 50.393,79.871 49.652,79.347 49.454 C 79.064 49.347,78.833 49.204,78.833 49.135 C 78.833 49.067,78.718 49.055,78.576 49.109 C 78.435 49.163,78.331 49.330,78.346 49.479 C 78.414 50.191,78.313 51.775,78.185 51.976 C 78.027 52.225,77.167 51.793,77.167 51.465 C 77.167 51.121,76.463 50.333,76.155 50.333 C 75.897 50.333,75.833 50.451,75.833 50.927 C 75.833 51.253,75.891 51.484,75.961 51.441 C 76.032 51.397,76.061 51.655,76.027 52.014 C 75.993 52.373,75.917 52.666,75.857 52.664 C 75.688 52.660,75.233 52.339,75.393 52.336 C 75.472 52.334,75.378 52.202,75.183 52.042 C 74.465 51.450,74.385 49.872,75.011 48.646 C 75.411 47.861,75.324 47.072,74.819 46.912 C 74.641 46.856,74.539 46.721,74.593 46.613 C 74.647 46.505,74.573 46.562,74.429 46.740 C 74.285 46.918,74.167 47.162,74.167 47.282 C 74.167 47.402,74.110 47.500,74.041 47.500 C 73.868 47.500,73.102 49.186,73.124 49.517 C 73.163 50.094,72.274 49.804,72.151 49.199 C 71.997 48.446,71.034 47.767,70.982 48.375 C 70.949 48.761,70.998 49.413,71.102 49.958 C 71.219 50.574,71.043 50.645,70.418 50.236 C 69.892 49.891,69.691 50.037,69.559 50.862 C 69.471 51.416,69.422 51.485,69.288 51.247 C 69.056 50.832,69.252 49.491,69.643 48.820 C 70.112 48.015,70.284 47.000,69.951 47.000 C 69.693 47.000,67.500 49.255,67.500 49.520 C 67.500 50.013,66.997 49.591,66.979 49.083 C 66.968 48.762,66.946 48.444,66.930 48.375 C 66.914 48.306,66.845 47.969,66.777 47.625 C 66.708 47.281,66.587 47.000,66.507 47.000 C 66.428 47.000,66.384 46.869,66.410 46.708 C 66.436 46.548,66.381 46.321,66.287 46.203 C 66.172 46.058,66.176 45.861,66.303 45.584 C 66.433 45.298,66.435 45.146,66.309 45.068 C 66.190 44.995,66.205 44.906,66.357 44.800 C 66.533 44.677,66.537 44.622,66.375 44.557 C 66.260 44.510,66.167 44.328,66.167 44.153 C 66.167 43.200,64.257 42.752,63.561 43.542 C 62.791 44.415,62.754 45.334,63.470 45.796 C 64.464 46.436,65.167 47.277,65.167 47.825 C 65.167 48.068,64.901 48.044,64.634 47.777 C 64.291 47.434,62.947 46.747,62.667 46.772 C 62.529 46.785,62.304 46.805,62.167 46.817 C 62.006 46.831,61.981 46.882,62.097 46.961 C 62.196 47.028,62.383 47.327,62.512 47.625 C 62.642 47.923,62.807 48.167,62.878 48.167 C 62.950 48.167,63.085 48.335,63.178 48.542 C 63.411 49.058,63.722 49.582,63.975 49.887 C 64.674 50.729,64.219 51.487,63.481 50.708 C 62.277 49.437,61.092 49.307,60.924 50.428 C 60.863 50.830,60.737 51.206,60.643 51.264 C 60.549 51.323,60.337 51.685,60.172 52.070 C 59.527 53.576,59.095 53.625,58.921 52.211 C 58.672 50.179,57.948 49.744,57.736 51.499 C 57.675 52.004,57.551 52.510,57.459 52.625 C 57.280 52.849,56.807 52.916,56.873 52.708 C 56.895 52.640,56.813 52.345,56.691 52.053 C 56.459 51.499,56.000 51.452,56.000 51.982 C 56.000 53.758,52.870 53.830,52.427 52.065 C 52.365 51.820,52.205 51.667,52.011 51.667 C 51.837 51.667,51.669 51.597,51.639 51.512 C 51.608 51.427,51.369 51.305,51.107 51.240 C 50.639 51.123,50.565 51.714,51.012 52.003 C 51.157 52.097,51.500 52.923,51.500 53.178 C 51.500 53.544,50.901 53.284,50.308 52.660 C 49.823 52.150,49.667 51.848,49.667 51.422 C 49.667 50.891,49.323 50.333,48.996 50.333 C 48.915 50.333,48.627 50.656,48.355 51.051 C 47.541 52.235,47.443 52.266,46.940 51.505 C 46.698 51.139,46.500 50.767,46.500 50.676 C 46.500 50.443,45.861 50.130,45.651 50.260 C 45.540 50.329,45.511 50.785,45.572 51.504 C 45.757 53.677,45.032 54.249,44.750 52.154 C 44.504 50.326,43.667 49.644,43.667 51.271 C 43.667 52.405,42.951 52.875,42.432 52.083 C 42.217 51.755,42.019 51.667,41.499 51.667 C 40.935 51.667,40.825 51.607,40.735 51.250 C 40.677 51.019,40.509 50.832,40.357 50.831 C 40.172 50.829,40.147 50.788,40.279 50.704 C 40.427 50.610,40.429 50.408,40.288 49.881 C 40.145 49.343,40.150 49.092,40.312 48.790 C 40.564 48.319,40.498 46.969,40.218 46.877 C 40.109 46.841,39.892 47.061,39.737 47.364 C 39.581 47.668,39.383 47.963,39.296 48.019 C 39.075 48.162,39.100 48.355,39.361 48.520 C 39.528 48.627,39.507 48.662,39.272 48.664 C 39.031 48.666,38.979 48.760,39.041 49.083 C 39.085 49.313,39.056 49.500,38.977 49.500 C 38.898 49.500,38.833 49.692,38.833 49.928 C 38.833 50.967,38.252 51.325,38.106 50.375 C 37.809 48.444,37.750 47.667,37.898 47.617 C 38.140 47.537,38.143 46.817,37.904 46.245 C 37.708 45.777,37.637 45.282,37.424 42.917 C 37.308 41.637,36.347 40.949,36.317 42.125 C 36.269 44.018,35.361 45.013,35.059 43.504 C 35.004 43.227,34.899 43.000,34.826 43.000 C 34.753 43.000,34.642 42.766,34.579 42.480 C 34.406 41.694,32.907 40.380,32.011 40.228 C 31.533 40.147,30.142 42.609,30.528 42.854 C 30.700 42.963,30.688 42.995,30.472 42.997 C 30.319 42.999,30.165 43.088,30.129 43.197 C 29.908 43.858,29.467 43.125,29.573 42.274 C 29.721 41.087,29.071 39.586,27.739 38.042 C 26.476 36.578,25.659 37.507,26.757 39.157 C 27.216 39.847,27.248 39.994,27.216 41.319 C 27.193 42.277,27.248 42.782,27.383 42.867 C 27.519 42.954,27.490 42.996,27.292 42.997 C 27.049 43.000,26.999 43.161,26.992 43.958 L 26.985 44.917 26.145 44.000 C 25.683 43.496,25.231 43.104,25.140 43.129 C 25.050 43.154,25.020 43.102,25.076 43.012 C 25.409 42.473,22.317 42.099,21.709 42.605 C 21.232 43.003,21.340 43.135,22.704 43.818 C 23.321 44.126,23.943 44.559,24.086 44.778 C 24.230 44.998,24.411 45.138,24.489 45.090 C 24.566 45.042,24.630 45.822,24.630 46.823 C 24.630 48.722,24.327 49.277,24.082 47.827 C 23.931 46.929,22.404 44.833,21.902 44.833 C 21.774 44.833,21.657 45.265,21.582 46.012 C 21.499 46.835,21.387 47.221,21.209 47.289 C 20.829 47.434,20.424 47.108,20.364 46.608 C 20.330 46.328,20.209 46.166,20.031 46.164 C 19.809 46.162,19.798 46.131,19.976 46.018 C 20.145 45.911,20.171 45.688,20.076 45.146 C 20.007 44.745,19.942 43.663,19.933 42.742 C 19.917 41.088,19.641 40.167,19.163 40.167 C 19.073 40.167,18.949 40.148,18.886 40.125 C 18.824 40.102,18.754 40.562,18.731 41.147 C 18.665 42.834,18.042 43.031,17.695 41.475 C 17.585 40.985,17.461 40.433,17.418 40.250 C 17.375 40.067,17.257 39.559,17.156 39.121 C 17.045 38.644,16.794 38.163,16.527 37.917 C 15.561 37.026,15.111 36.667,14.964 36.667 C 14.879 36.667,14.697 36.554,14.560 36.417 C 14.280 36.137,13.500 36.075,13.500 36.333 C 13.500 36.425,13.400 36.500,13.278 36.500 C 12.846 36.500,12.625 37.260,12.695 38.501 C 12.769 39.814,13.034 40.173,14.487 40.934 C 15.437 41.432,15.834 42.333,15.103 42.333 C 12.877 42.333,13.400 43.862,15.667 43.981 C 16.398 44.019,17.500 44.818,17.500 45.308 C 17.500 45.399,17.646 45.814,17.825 46.231 C 18.247 47.216,18.100 47.279,16.597 46.760 C 15.291 46.309,13.833 46.188,13.833 46.531 C 13.833 47.068,14.678 48.369,15.697 49.402 C 16.615 50.332,16.832 50.652,16.828 51.068 L 16.822 51.583 16.490 51.167 C 14.815 49.062,14.152 49.192,14.950 51.469 C 15.031 51.698,15.007 51.711,14.825 51.542 C 14.565 51.301,13.667 51.259,13.667 51.487 C 13.667 51.641,12.530 52.085,12.419 51.974 C 12.386 51.942,12.549 51.504,12.780 51.001 C 13.569 49.285,13.062 45.074,12.055 44.979 C 11.267 44.905,11.250 44.915,11.292 45.418 C 11.510 47.968,11.312 48.999,10.450 49.804 L 10.035 50.191 9.675 49.109 C 9.271 47.894,9.183 46.259,9.491 45.683 C 9.807 45.094,9.920 43.667,9.652 43.667 C 9.482 43.667,9.478 43.622,9.633 43.467 C 9.905 43.195,9.881 42.341,9.587 41.833 C 9.455 41.604,9.293 41.304,9.227 41.167 C 9.162 41.029,8.846 40.666,8.526 40.360 C 8.190 40.038,8.017 39.757,8.115 39.694 C 8.304 39.571,8.758 38.331,8.695 38.108 C 8.520 37.484,9.474 37.160,10.191 37.599 C 10.388 37.720,11.458 37.182,11.563 36.909 C 11.620 36.761,11.667 36.022,11.667 35.268 C 11.667 34.321,11.742 33.797,11.911 33.574 C 12.213 33.175,12.239 32.557,11.958 32.444 C 11.792 32.376,11.792 32.357,11.958 32.346 C 12.073 32.339,12.167 32.213,12.167 32.066 C 12.167 31.892,12.076 31.833,11.908 31.897 C 11.751 31.957,11.692 31.927,11.758 31.821 C 11.932 31.539,11.322 31.000,10.828 31.000 C 9.901 31.000,9.353 31.189,9.445 31.477 C 9.503 31.662,9.485 31.686,9.386 31.550 C 9.300 31.432,9.022 31.385,8.704 31.435 C 8.084 31.533,8.034 31.380,8.495 30.795 C 8.675 30.566,8.775 30.330,8.717 30.272 C 8.659 30.214,8.683 30.167,8.772 30.167 C 8.860 30.167,8.929 29.783,8.925 29.315 C 8.913 28.045,7.746 26.757,6.792 26.962 M7.230 40.161 C 7.512 40.262,7.540 40.447,7.512 42.082 C 7.470 44.488,7.004 45.365,6.738 43.538 C 6.675 43.105,6.532 42.563,6.421 42.333 C 5.449 40.332,5.714 39.620,7.230 40.161 M224.175 41.925 C 225.072 42.809,225.162 43.160,224.813 44.417 C 224.654 44.988,224.565 45.591,224.512 46.450 C 224.503 46.599,224.357 46.590,223.938 46.415 C 223.629 46.286,223.322 46.233,223.257 46.298 C 223.192 46.363,223.164 46.308,223.194 46.176 C 223.263 45.879,222.096 45.447,221.628 45.595 C 221.374 45.676,221.329 45.792,221.415 46.138 C 221.476 46.379,221.539 46.654,221.555 46.747 C 221.605 47.042,222.509 48.333,222.666 48.333 C 223.383 48.333,224.138 49.862,223.658 50.342 C 223.313 50.687,223.000 50.650,223.000 50.265 C 223.000 49.669,221.985 48.629,221.676 48.908 C 221.398 49.160,221.368 49.158,221.267 48.882 C 221.114 48.459,220.495 47.377,219.914 46.514 L 219.419 45.778 219.168 46.388 C 218.724 47.468,218.333 47.213,218.333 45.843 C 218.333 44.196,217.600 44.034,217.166 45.585 C 217.011 46.140,216.822 46.417,216.476 46.596 L 216.000 46.842 216.000 45.959 C 216.000 45.055,216.794 43.686,217.180 43.925 C 217.264 43.977,217.333 43.949,217.333 43.863 C 217.333 43.656,218.232 43.292,218.745 43.292 C 218.977 43.292,219.500 43.579,219.952 43.955 C 221.223 45.011,221.388 45.064,222.164 44.668 C 222.768 44.360,222.914 44.175,222.853 43.792 C 222.842 43.723,222.908 43.667,223.000 43.667 C 223.554 43.667,222.849 42.742,222.043 42.413 L 221.617 42.239 222.392 41.557 C 222.818 41.182,223.177 40.772,223.189 40.646 C 223.202 40.520,223.243 40.573,223.281 40.764 C 223.318 40.955,223.721 41.477,224.175 41.925 M33.147 44.542 C 33.785 45.228,34.335 45.910,34.794 46.583 C 35.044 46.950,35.308 47.293,35.380 47.346 C 35.533 47.460,35.590 52.053,35.440 52.295 C 34.921 53.136,34.583 52.598,34.528 50.844 C 34.467 48.899,34.420 48.783,33.729 48.862 C 33.308 48.910,33.244 48.992,33.198 49.542 L 33.147 50.167 32.187 50.167 C 31.011 50.167,30.797 49.841,30.479 47.570 L 30.276 46.118 31.013 45.468 C 31.418 45.110,31.895 44.670,32.071 44.492 C 32.487 44.071,32.719 44.082,33.147 44.542 M248.452 45.667 C 249.907 48.258,250.115 49.324,249.161 49.297 C 248.882 49.289,248.616 49.220,248.569 49.143 C 248.521 49.066,248.599 49.048,248.741 49.103 C 249.188 49.275,249.024 48.925,248.348 48.265 C 247.585 47.520,247.411 47.568,247.261 48.567 C 247.200 48.972,247.047 49.343,246.921 49.392 C 246.667 49.490,246.272 49.117,246.446 48.943 C 246.506 48.883,246.481 48.833,246.389 48.833 C 246.182 48.833,246.161 48.716,246.098 47.167 C 246.068 46.427,246.133 45.703,246.258 45.393 C 246.417 44.996,246.422 44.818,246.276 44.660 C 246.126 44.497,246.148 44.474,246.375 44.554 C 246.535 44.610,246.667 44.579,246.667 44.484 C 246.667 43.743,247.790 44.487,248.452 45.667 M27.765 46.249 C 27.822 46.477,27.923 46.631,27.990 46.590 C 28.057 46.548,28.111 46.624,28.111 46.757 C 28.111 47.147,27.549 47.036,27.438 46.625 C 27.293 46.081,27.311 45.833,27.497 45.833 C 27.587 45.833,27.707 46.020,27.765 46.249 M214.000 47.502 C 214.000 48.043,213.687 48.833,213.473 48.833 C 213.396 48.833,213.333 48.944,213.333 49.080 C 213.333 49.345,212.626 49.598,212.355 49.430 C 212.262 49.373,212.513 48.838,212.928 48.206 C 213.334 47.588,213.666 47.023,213.666 46.948 C 213.667 46.874,213.742 46.860,213.833 46.917 C 213.925 46.973,214.000 47.237,214.000 47.502 M171.259 48.250 C 171.702 48.663,172.003 49.000,171.928 49.000 C 171.854 49.000,171.870 49.094,171.964 49.208 C 172.275 49.587,172.290 51.524,171.980 51.213 C 171.877 51.110,171.677 51.070,171.536 51.125 C 171.366 51.190,171.320 51.156,171.400 51.027 C 171.467 50.919,171.351 50.592,171.143 50.299 C 169.536 48.043,169.611 46.716,171.259 48.250 M104.397 48.834 C 105.006 49.508,105.161 50.048,104.808 50.266 C 104.691 50.338,104.660 50.312,104.730 50.200 C 104.794 50.096,104.641 49.886,104.380 49.720 C 103.786 49.342,102.833 48.465,102.833 48.297 C 102.833 47.872,103.841 48.218,104.397 48.834 M103.225 50.267 C 103.415 50.528,103.564 51.086,103.611 51.720 L 103.689 52.750 103.334 52.344 C 103.139 52.120,102.937 51.725,102.885 51.465 C 102.833 51.206,102.725 50.953,102.645 50.903 C 102.417 50.762,102.472 49.833,102.708 49.839 C 102.823 49.841,103.056 50.034,103.225 50.267 M62.019 52.219 C 62.369 53.488,62.330 53.996,61.887 53.959 C 61.479 53.926,61.375 53.633,61.279 52.241 C 61.211 51.256,61.748 51.239,62.019 52.219 " stroke="none" fill="#7cc43c" fill-rule="evenodd"></path><path id="path1" d="M229.998 31.918 C 230.661 32.717,230.717 32.769,230.536 32.415 C 230.441 32.230,230.189 31.931,229.974 31.749 C 229.597 31.431,229.598 31.437,229.998 31.918 M292.538 33.198 C 292.574 33.307,292.693 33.426,292.802 33.462 C 292.924 33.502,292.961 33.426,292.899 33.264 C 292.783 32.961,292.438 32.898,292.538 33.198 M258.096 34.420 C 257.919 34.554,257.813 34.702,257.860 34.749 C 257.908 34.797,258.120 34.685,258.332 34.501 C 258.773 34.119,258.581 34.053,258.096 34.420 M221.177 39.218 L 220.771 39.750 221.302 39.260 C 221.855 38.751,221.918 38.660,221.708 38.676 C 221.640 38.681,221.401 38.925,221.177 39.218 M1.433 39.123 C 1.269 39.287,1.321 40.167,1.495 40.167 C 1.584 40.167,1.609 40.043,1.551 39.893 C 1.488 39.729,1.560 39.535,1.728 39.412 C 1.961 39.242,1.969 39.190,1.771 39.115 C 1.640 39.064,1.488 39.068,1.433 39.123 M157.001 39.167 C 156.847 39.669,156.855 40.054,157.014 39.785 C 157.111 39.622,157.153 39.397,157.108 39.285 C 157.063 39.174,157.015 39.121,157.001 39.167 M211.667 41.508 L 211.250 41.842 211.708 41.644 C 211.960 41.536,212.167 41.384,212.167 41.307 C 212.167 41.116,212.144 41.126,211.667 41.508 M16.808 44.632 C 17.014 44.920,17.268 45.210,17.374 45.275 C 17.479 45.340,17.397 45.157,17.192 44.868 C 16.986 44.580,16.732 44.290,16.626 44.225 C 16.521 44.160,16.603 44.343,16.808 44.632 M377.669 45.125 C 377.671 45.356,377.702 45.369,377.817 45.187 C 377.902 45.053,378.051 45.012,378.174 45.088 C 378.311 45.173,378.343 45.151,378.266 45.026 C 378.082 44.729,377.666 44.798,377.669 45.125 M290.095 45.148 C 290.045 45.229,290.147 45.333,290.323 45.379 C 290.546 45.437,290.615 45.393,290.553 45.231 C 290.452 44.969,290.231 44.928,290.095 45.148 M232.500 45.274 C 232.500 45.364,232.744 45.658,233.042 45.927 L 233.583 46.417 233.083 45.834 C 232.808 45.514,232.565 45.220,232.542 45.181 C 232.519 45.143,232.500 45.185,232.500 45.274 M246.092 46.995 C 246.097 47.451,246.154 47.876,246.218 47.940 C 246.281 48.003,246.333 47.631,246.333 47.111 C 246.333 46.592,246.277 46.167,246.208 46.167 C 246.139 46.167,246.087 46.540,246.092 46.995 M292.431 46.607 C 292.276 47.011,292.396 47.034,292.716 46.662 C 292.934 46.407,292.945 46.333,292.766 46.333 C 292.639 46.333,292.488 46.457,292.431 46.607 M370.601 46.849 C 370.228 47.596,370.272 47.688,370.690 47.035 C 370.883 46.733,371.003 46.447,370.955 46.399 C 370.907 46.352,370.748 46.554,370.601 46.849 M104.792 46.918 C 104.729 47.248,104.758 47.298,104.930 47.156 C 105.049 47.057,105.106 46.869,105.056 46.738 C 104.929 46.407,104.884 46.437,104.792 46.918 M364.765 46.730 C 364.818 46.866,365.001 46.967,365.173 46.954 C 365.452 46.933,365.471 46.754,365.194 46.747 C 365.133 46.746,364.990 46.686,364.877 46.614 C 364.737 46.525,364.701 46.562,364.765 46.730 M113.333 46.896 C 113.333 47.023,113.458 47.229,113.611 47.355 C 113.860 47.561,113.869 47.548,113.700 47.230 C 113.596 47.036,113.559 46.830,113.617 46.772 C 113.675 46.714,113.635 46.667,113.528 46.667 C 113.421 46.667,113.333 46.770,113.333 46.896 M261.393 46.782 C 261.457 46.846,261.675 46.921,261.879 46.949 C 262.173 46.990,262.198 46.967,262.000 46.836 C 261.717 46.650,261.216 46.605,261.393 46.782 M191.788 47.101 C 191.721 47.168,191.669 47.378,191.672 47.569 C 191.676 47.890,191.690 47.894,191.850 47.619 C 192.037 47.298,191.989 46.900,191.788 47.101 M200.111 47.278 C 199.900 47.489,200.000 47.707,200.224 47.522 C 200.347 47.420,200.509 47.392,200.584 47.460 C 200.659 47.528,200.666 47.490,200.600 47.375 C 200.468 47.145,200.281 47.108,200.111 47.278 M68.763 47.797 L 68.443 48.250 68.888 47.846 C 69.356 47.421,69.414 47.330,69.208 47.339 C 69.140 47.341,68.939 47.548,68.763 47.797 M170.696 47.958 C 171.000 48.210,171.387 48.567,171.555 48.750 C 171.858 49.082,171.859 49.082,171.638 48.732 C 171.399 48.353,170.441 47.500,170.255 47.500 C 170.192 47.500,170.391 47.706,170.696 47.958 M117.542 48.277 C 117.280 48.383,117.271 48.775,117.526 48.933 C 117.649 49.009,117.673 48.978,117.592 48.848 C 117.519 48.729,117.594 48.548,117.775 48.411 C 118.077 48.182,117.954 48.111,117.542 48.277 M136.834 48.532 C 136.834 48.779,136.913 49.030,137.011 49.090 C 137.318 49.280,137.349 49.068,137.087 48.566 L 136.835 48.083 136.834 48.532 M261.000 48.417 C 261.114 48.554,261.282 48.667,261.374 48.667 C 261.467 48.667,261.449 48.556,261.333 48.417 C 261.219 48.279,261.051 48.167,260.959 48.167 C 260.866 48.167,260.884 48.277,261.000 48.417 M192.269 48.594 C 192.214 48.737,192.093 48.808,192.001 48.751 C 191.909 48.694,191.833 48.764,191.833 48.907 C 191.833 49.050,191.890 49.164,191.958 49.161 C 192.145 49.154,192.707 48.333,192.526 48.333 C 192.439 48.333,192.324 48.451,192.269 48.594 M283.714 48.783 C 283.511 48.994,283.406 49.167,283.480 49.167 C 283.643 49.167,284.249 48.519,284.152 48.449 C 284.114 48.422,283.917 48.572,283.714 48.783 M15.095 49.034 C 15.357 49.373,15.607 49.615,15.652 49.570 C 15.696 49.526,15.482 49.248,15.176 48.953 L 14.619 48.417 15.095 49.034 M40.271 48.923 C 40.213 49.072,40.173 49.357,40.182 49.555 C 40.192 49.811,40.244 49.753,40.358 49.357 C 40.524 48.780,40.456 48.441,40.271 48.923 M30.673 48.925 C 30.676 49.012,30.791 49.271,30.930 49.500 L 31.181 49.917 31.072 49.500 C 30.958 49.065,30.662 48.639,30.673 48.925 M3.333 49.052 C 3.333 49.081,3.577 49.325,3.875 49.594 L 4.417 50.083 3.927 49.542 C 3.471 49.037,3.333 48.923,3.333 49.052 M202.317 49.250 C 202.598 49.794,202.828 50.095,202.827 49.917 C 202.826 49.825,202.673 49.563,202.485 49.333 C 202.259 49.057,202.202 49.029,202.317 49.250 M264.916 49.335 C 264.857 49.430,264.884 49.488,264.976 49.462 C 265.068 49.437,265.265 49.567,265.414 49.750 C 265.681 50.078,265.682 50.077,265.508 49.718 C 265.287 49.259,265.055 49.109,264.916 49.335 M104.725 49.460 C 104.786 49.558,104.752 49.666,104.649 49.700 C 104.532 49.739,104.562 49.844,104.732 49.985 C 104.964 50.177,105.000 50.161,105.000 49.864 C 105.000 49.674,104.913 49.466,104.808 49.401 C 104.694 49.330,104.660 49.355,104.725 49.460 M85.884 50.262 L 85.417 50.691 85.958 50.314 C 86.256 50.107,86.500 49.914,86.500 49.885 C 86.500 49.754,86.316 49.867,85.884 50.262 M111.852 49.986 C 111.669 50.101,111.698 50.172,111.992 50.329 C 112.195 50.438,112.405 50.483,112.459 50.430 C 112.512 50.377,112.474 50.333,112.373 50.333 C 112.273 50.333,112.167 50.223,112.137 50.088 C 112.101 49.924,112.007 49.890,111.852 49.986 M93.489 50.403 C 93.659 50.608,94.333 50.882,94.333 50.747 C 94.333 50.716,94.101 50.575,93.817 50.433 C 93.426 50.238,93.346 50.231,93.489 50.403 M147.464 50.842 C 147.277 51.168,147.098 51.296,146.924 51.230 C 146.732 51.156,146.691 51.203,146.769 51.405 C 146.889 51.718,147.365 51.397,147.696 50.779 C 147.971 50.264,147.763 50.321,147.464 50.842 M1.786 51.349 C 1.994 51.551,2.302 51.599,2.275 51.424 C 2.261 51.337,2.116 51.255,1.952 51.243 C 1.789 51.231,1.714 51.279,1.786 51.349 M49.678 51.615 C 49.672 51.816,49.742 52.027,49.833 52.083 C 50.030 52.205,50.030 52.042,49.833 51.583 C 49.695 51.262,49.690 51.263,49.678 51.615 M56.005 51.493 C 55.870 51.579,55.800 51.689,55.850 51.739 C 55.900 51.789,56.086 51.721,56.262 51.587 C 56.614 51.321,56.400 51.244,56.005 51.493 M41.208 51.615 C 41.369 51.657,41.631 51.657,41.792 51.615 C 41.952 51.573,41.821 51.539,41.500 51.539 C 41.179 51.539,41.048 51.573,41.208 51.615 M108.762 51.754 C 108.586 51.887,108.473 52.028,108.512 52.067 C 108.551 52.106,108.760 51.994,108.977 51.819 C 109.433 51.449,109.241 51.391,108.762 51.754 M110.609 52.695 C 110.919 53.037,111.057 53.010,110.913 52.635 C 110.861 52.500,110.709 52.389,110.575 52.389 C 110.374 52.389,110.380 52.442,110.609 52.695 M59.576 52.845 C 59.516 52.943,59.361 52.982,59.233 52.933 C 58.976 52.835,58.909 53.091,59.153 53.242 C 59.289 53.326,59.833 52.922,59.833 52.738 C 59.833 52.605,59.687 52.666,59.576 52.845 " stroke="none" fill="#74c43c" fill-rule="evenodd"></path><path id="path2" d="M259.000 33.167 C 259.000 33.258,259.112 33.333,259.250 33.333 C 259.387 33.333,259.500 33.258,259.500 33.167 C 259.500 33.075,259.387 33.000,259.250 33.000 C 259.112 33.000,259.000 33.075,259.000 33.167 M204.954 33.659 C 204.907 33.838,204.959 34.108,205.069 34.259 C 205.237 34.488,205.259 34.434,205.200 33.934 C 205.120 33.250,205.074 33.198,204.954 33.659 M258.268 33.930 C 258.111 34.338,258.145 34.378,258.417 34.107 C 258.700 33.824,258.736 33.667,258.518 33.667 C 258.436 33.667,258.323 33.785,258.268 33.930 M257.500 36.333 C 257.386 36.608,257.235 36.833,257.164 36.833 C 257.094 36.833,256.992 36.946,256.940 37.083 C 256.739 37.607,257.105 37.302,257.539 36.583 C 257.788 36.171,257.928 35.833,257.849 35.833 C 257.771 35.833,257.614 36.058,257.500 36.333 M262.292 36.327 C 261.867 36.741,261.933 36.908,262.363 36.508 C 262.562 36.322,262.694 36.142,262.655 36.107 C 262.615 36.072,262.452 36.171,262.292 36.327 M205.000 36.740 C 205.000 36.964,205.061 37.185,205.137 37.231 C 205.212 37.278,205.241 37.095,205.201 36.825 C 205.114 36.229,205.000 36.181,205.000 36.740 M3.788 38.208 C 3.743 38.506,3.759 38.850,3.825 38.972 C 3.891 39.094,3.958 38.850,3.974 38.430 C 4.007 37.543,3.908 37.425,3.788 38.208 M258.699 38.011 C 258.588 38.188,258.564 38.333,258.645 38.333 C 258.874 38.333,259.200 37.874,259.041 37.776 C 258.964 37.728,258.809 37.833,258.699 38.011 M257.533 39.910 C 257.430 40.136,257.409 40.361,257.487 40.409 C 257.565 40.457,257.668 40.291,257.716 40.040 C 257.831 39.445,257.766 39.399,257.533 39.910 M250.667 42.807 C 250.667 42.884,250.873 43.039,251.125 43.153 L 251.583 43.360 251.215 43.013 C 250.821 42.641,250.667 42.584,250.667 42.807 M32.871 44.531 C 32.955 44.780,33.333 44.917,33.333 44.698 C 33.333 44.609,33.215 44.490,33.069 44.434 C 32.907 44.372,32.831 44.409,32.871 44.531 M207.239 45.149 C 207.301 45.249,207.507 45.414,207.696 45.516 C 207.943 45.648,208.008 45.648,207.927 45.518 C 207.865 45.417,207.660 45.252,207.471 45.151 C 207.224 45.019,207.158 45.018,207.239 45.149 M66.262 45.611 C 66.204 45.764,66.224 45.957,66.307 46.040 C 66.398 46.131,66.458 46.020,66.458 45.762 C 66.458 45.263,66.410 45.226,66.262 45.611 M347.667 45.843 C 347.667 45.940,347.592 45.973,347.500 45.917 C 347.408 45.860,347.333 45.893,347.333 45.990 C 347.333 46.235,347.545 46.211,347.926 45.922 C 348.219 45.701,348.222 45.677,347.958 45.672 C 347.798 45.669,347.667 45.746,347.667 45.843 M369.841 46.250 C 369.837 46.498,370.135 46.921,370.239 46.816 C 370.289 46.766,370.221 46.581,370.087 46.404 C 369.953 46.228,369.843 46.158,369.841 46.250 M123.000 46.629 C 123.000 46.822,123.062 47.019,123.138 47.066 C 123.302 47.167,123.281 46.558,123.115 46.392 C 123.052 46.329,123.000 46.436,123.000 46.629 M106.578 46.917 C 106.535 47.054,106.465 47.279,106.422 47.417 C 106.379 47.554,106.408 47.667,106.486 47.667 C 106.565 47.667,106.662 47.442,106.702 47.167 C 106.780 46.638,106.709 46.496,106.578 46.917 M335.389 46.917 C 335.389 47.054,335.487 47.167,335.606 47.167 C 335.730 47.167,335.782 47.060,335.727 46.917 C 335.674 46.779,335.577 46.667,335.510 46.667 C 335.443 46.667,335.389 46.779,335.389 46.917 M39.546 47.375 C 39.247 47.762,39.146 48.000,39.282 47.999 C 39.356 47.998,39.503 47.810,39.609 47.582 C 39.820 47.128,39.797 47.051,39.546 47.375 M328.012 47.365 C 328.035 47.805,328.274 48.231,328.391 48.042 C 328.454 47.940,328.428 47.809,328.333 47.750 C 328.239 47.691,328.201 47.579,328.250 47.500 C 328.299 47.421,328.263 47.309,328.169 47.252 C 328.076 47.194,328.005 47.245,328.012 47.365 M202.500 47.667 C 202.325 47.780,202.584 47.829,203.365 47.831 C 203.979 47.832,204.527 47.758,204.583 47.667 C 204.718 47.448,202.838 47.448,202.500 47.667 M205.042 47.615 C 205.202 47.657,205.465 47.657,205.625 47.615 C 205.785 47.573,205.654 47.539,205.333 47.539 C 205.012 47.539,204.881 47.573,205.042 47.615 M324.333 47.575 C 324.333 47.698,324.764 48.167,324.877 48.167 C 324.914 48.167,324.944 48.054,324.944 47.917 C 324.944 47.779,324.908 47.704,324.863 47.749 C 324.818 47.794,324.680 47.747,324.557 47.645 C 324.434 47.543,324.333 47.511,324.333 47.575 M136.451 48.162 C 136.606 48.342,136.739 48.474,136.747 48.453 C 136.755 48.433,136.871 48.267,137.005 48.083 C 137.228 47.779,137.226 47.769,136.973 47.966 C 136.787 48.112,136.661 48.126,136.588 48.008 C 136.529 47.912,136.410 47.833,136.325 47.833 C 136.240 47.833,136.296 47.981,136.451 48.162 M268.014 48.167 C 268.019 48.304,268.088 48.567,268.167 48.750 L 268.310 49.083 268.319 48.750 C 268.324 48.567,268.256 48.304,268.167 48.167 C 268.023 47.944,268.006 47.944,268.014 48.167 M312.858 48.267 C 312.734 48.407,312.666 48.555,312.706 48.595 C 312.747 48.636,312.916 48.518,313.082 48.334 C 313.249 48.150,313.317 48.003,313.234 48.006 C 313.151 48.010,312.982 48.127,312.858 48.267 M9.523 48.500 C 9.523 48.637,9.588 48.900,9.667 49.083 C 9.757 49.293,9.810 49.324,9.810 49.167 C 9.810 49.029,9.745 48.767,9.667 48.583 C 9.576 48.373,9.523 48.342,9.523 48.500 M264.584 48.834 C 264.751 49.018,264.923 49.133,264.967 49.088 C 265.079 48.976,264.663 48.500,264.454 48.500 C 264.359 48.500,264.418 48.650,264.584 48.834 M35.353 49.825 C 35.340 50.554,35.388 50.845,35.503 50.730 C 35.614 50.619,35.621 50.248,35.522 49.655 L 35.372 48.750 35.353 49.825 M141.000 50.583 C 140.746 51.058,140.814 51.220,141.171 50.993 C 141.367 50.870,141.370 50.838,141.188 50.836 C 141.002 50.834,140.999 50.786,141.170 50.579 C 141.286 50.440,141.345 50.290,141.302 50.246 C 141.258 50.203,141.122 50.354,141.000 50.583 " stroke="none" fill="#7cbc3c" fill-rule="evenodd"></path><path id="path3" d="" stroke="none" fill="#80c43c" fill-rule="evenodd"></path><path id="path4" d="" stroke="none" fill="#80c43c" fill-rule="evenodd"></path></g></svg>