<?xml version="1.0" standalone="no"?>
<!DOCTYPE svg PUBLIC "-//W3C//DTD SVG 20010904//EN"
 "http://www.w3.org/TR/2001/REC-SVG-20010904/DTD/svg10.dtd">
<svg version="1.0" xmlns="http://www.w3.org/2000/svg"
 width="512.000000pt" height="512.000000pt" viewBox="0 0 512.000000 512.000000"
 preserveAspectRatio="xMidYMid meet">

<g transform="translate(0.000000,512.000000) scale(0.100000,-0.100000)"
fill="#000000" stroke="none">
<path d="M2275 4814 c-827 -112 -1514 -643 -1821 -1407 -100 -248 -128 -401
-90 -491 59 -141 217 -215 362 -170 46 14 72 31 116 74 52 53 59 64 88 161 95
314 214 526 406 728 284 299 624 471 1028 522 137 17 401 6 530 -21 476 -101
897 -404 1125 -812 l32 -57 -208 -3 c-193 -3 -211 -5 -250 -26 -133 -70 -195
-227 -144 -362 29 -77 73 -125 149 -162 l67 -33 610 0 610 0 56 26 c68 32 124
87 153 148 21 45 21 58 24 662 3 612 2 617 -19 675 -44 119 -169 202 -290 191
-114 -10 -205 -73 -253 -176 -19 -43 -21 -65 -24 -315 l-3 -269 -61 94 c-321
498 -849 866 -1418 988 -240 51 -553 65 -775 35z"/>
<path d="M4410 2381 c-58 -19 -110 -53 -149 -97 -33 -38 -48 -68 -72 -148 -44
-145 -76 -229 -125 -327 -133 -267 -372 -529 -621 -680 -299 -181 -594 -258
-947 -246 -246 8 -439 55 -655 158 -244 116 -456 288 -619 500 -60 79 -142
210 -142 228 0 6 76 11 203 13 187 3 205 5 244 26 133 70 195 227 144 362 -29
77 -73 125 -149 162 l-67 33 -610 0 -610 0 -56 -26 c-68 -32 -124 -87 -153
-148 -21 -45 -21 -58 -24 -662 -3 -612 -2 -617 19 -675 44 -119 169 -202 290
-191 114 10 205 73 253 176 19 43 21 65 24 315 l3 268 68 -103 c295 -453 749
-790 1261 -938 683 -197 1410 -71 1975 342 346 253 613 596 771 990 100 248
128 401 90 491 -44 105 -144 175 -258 182 -35 2 -74 0 -88 -5z"/>
</g>
</svg>
